<svg width="18" height="18" viewBox="0 0 18 18" fill="none" xmlns="http://www.w3.org/2000/svg">
<path d="M8.62207 3.60979C9.00107 2.91485 9.99893 2.91484 10.3779 3.60979L11.6092 5.86741C11.753 6.13114 12.0078 6.31624 12.303 6.37153L14.8306 6.84487C15.6087 6.99057 15.917 7.93958 15.3732 8.51478L13.6066 10.3834C13.4002 10.6017 13.3029 10.9012 13.3415 11.1991L13.6724 13.7492C13.7743 14.5342 12.967 15.1208 12.2519 14.7813L9.92883 13.6786C9.65745 13.5497 9.34255 13.5497 9.07117 13.6786L6.74808 14.7813C6.03298 15.1208 5.2257 14.5342 5.32756 13.7493L5.65847 11.1991C5.69712 10.9012 5.59981 10.6017 5.39344 10.3834L3.62678 8.51478C3.08297 7.93958 3.39132 6.99057 4.16937 6.84487L6.69697 6.37153C6.99224 6.31624 7.247 6.13114 7.39083 5.86741L8.62207 3.60979Z" fill="#FFCF41"/>
</svg>
