<svg width="29" height="27" viewBox="0 0 29 27" fill="none" xmlns="http://www.w3.org/2000/svg">
<path d="M24.9195 14.0524L14.0555 25.3478L3.19161 14.0524C2.47504 13.3204 1.9106 12.4405 1.53385 11.4683C1.15709 10.496 0.976183 9.45234 1.00251 8.40307C1.02884 7.35379 1.26183 6.3216 1.68682 5.37149C2.11181 4.42139 2.71959 3.57395 3.47188 2.88255C4.22418 2.19115 5.10469 1.67076 6.05797 1.35414C7.01125 1.03753 8.01666 0.931557 9.01087 1.0429C10.0051 1.15423 10.9666 1.48047 11.8348 2.00107C12.703 2.52166 13.4591 3.22534 14.0555 4.06778C14.6546 3.23145 15.4116 2.53393 16.2792 2.01886C17.1468 1.50379 18.1063 1.18226 19.0978 1.0744C20.0892 0.966542 21.0911 1.07467 22.0409 1.39202C22.9907 1.70937 23.8679 2.22912 24.6175 2.91872C25.3672 3.60832 25.9732 4.45294 26.3976 5.39971C26.822 6.34648 27.0557 7.37503 27.084 8.42097C27.1124 9.46692 26.9348 10.5077 26.5623 11.4783C26.1899 12.4489 25.6306 13.3283 24.9195 14.0615" stroke="black" stroke-width="2" stroke-linecap="round" stroke-linejoin="round"/>
</svg>
