<svg width="40" height="40" viewBox="0 0 40 40" fill="none" xmlns="http://www.w3.org/2000/svg">
<path d="M34.4543 22.4866L20.0173 37.332L5.58038 22.4866C4.62813 21.5245 3.87805 20.3682 3.37739 19.0903C2.87673 17.8125 2.63632 16.4408 2.67131 15.0618C2.70629 13.6827 3.01592 12.3261 3.58068 11.0774C4.14544 9.82872 4.95311 8.71494 5.95283 7.80624C6.95254 6.89754 8.12264 6.2136 9.38945 5.79748C10.6563 5.38136 11.9923 5.24208 13.3135 5.38841C14.6347 5.53474 15.9124 5.96351 17.0662 6.64772C18.2199 7.33193 19.2248 8.25676 20.0173 9.36397C20.8134 8.2648 21.8193 7.34805 22.9723 6.6711C24.1253 5.99415 25.4004 5.57157 26.7179 5.42982C28.0354 5.28806 29.3669 5.43017 30.629 5.84726C31.8912 6.26435 33.0569 6.94744 34.0531 7.85378C35.0493 8.76011 35.8546 9.87018 36.4185 11.1145C36.9825 12.3588 37.2931 13.7106 37.3307 15.0853C37.3684 16.46 37.1324 17.8279 36.6374 19.1035C36.1425 20.3791 35.3993 21.5349 34.4543 22.4986" fill="#F66F6F"/>
<path d="M34.4543 22.4866L20.0173 37.332L5.58038 22.4866C4.62813 21.5245 3.87805 20.3682 3.37739 19.0903C2.87673 17.8125 2.63632 16.4408 2.67131 15.0618C2.70629 13.6827 3.01592 12.3261 3.58068 11.0774C4.14544 9.82872 4.95311 8.71494 5.95283 7.80624C6.95254 6.89754 8.12264 6.2136 9.38945 5.79748C10.6563 5.38136 11.9923 5.24208 13.3135 5.38841C14.6347 5.53474 15.9124 5.96351 17.0662 6.64772C18.2199 7.33193 19.2248 8.25676 20.0173 9.36397C20.8134 8.2648 21.8193 7.34805 22.9723 6.6711C24.1253 5.99415 25.4004 5.57157 26.7179 5.42982C28.0354 5.28806 29.3669 5.43017 30.629 5.84726C31.8912 6.26435 33.0569 6.94744 34.0531 7.85378C35.0493 8.76011 35.8546 9.87018 36.4185 11.1145C36.9825 12.3588 37.2931 13.7106 37.3307 15.0853C37.3684 16.46 37.1324 17.8279 36.6374 19.1035C36.1425 20.3791 35.3993 21.5349 34.4543 22.4986" stroke="white" stroke-width="1.5" stroke-linecap="round" stroke-linejoin="round"/>
</svg>
