<svg width="29" height="31" viewBox="0 0 29 31" fill="none" xmlns="http://www.w3.org/2000/svg">
<path d="M5.34035 8.82483C5.5859 6.67354 6.63986 4.68577 8.30048 3.24202C9.9611 1.79828 12.1117 1 14.3406 1C16.5695 1 18.7201 1.79828 20.3807 3.24202C22.0414 4.68577 23.0953 6.67354 23.3409 8.82483L23.7494 12.392L23.7591 12.4817C23.9684 14.2512 24.5618 15.9574 25.5002 17.4877L25.5488 17.5665L26.4842 19.0824C27.3352 20.4583 27.76 21.1462 27.6676 21.7114C27.6065 22.0865 27.4079 22.4275 27.1083 22.6716C26.656 23.04 25.8292 23.04 24.1774 23.04H4.50387C2.85036 23.04 2.02361 23.04 1.57295 22.6732C1.2724 22.429 1.07315 22.0873 1.01205 21.7114C0.921272 21.1462 1.346 20.4583 2.19544 19.0824L3.13405 17.5649L3.18269 17.4862C4.12025 15.9562 4.71309 14.2505 4.92211 12.4817L4.93184 12.392L5.34035 8.82483Z" stroke="black" stroke-width="2"/>
<path d="M7.96094 23.04C7.96094 24.8859 8.63311 26.6562 9.8296 27.9615C11.0261 29.2668 12.6489 30 14.3409 30C16.033 30 17.6558 29.2668 18.8523 27.9615C20.0488 26.6562 20.7209 24.8859 20.7209 23.04" stroke="black" stroke-width="2" stroke-linecap="round"/>
</svg>
