<svg width="136" height="136" viewBox="0 0 136 136" fill="none" xmlns="http://www.w3.org/2000/svg">
<path d="M0.5 68C0.5 59.1358 2.24594 50.3583 5.63813 42.1689C9.03032 33.9794 14.0023 26.5382 20.2703 20.2703C26.5382 14.0023 33.9794 9.03032 42.1689 5.63813C50.3583 2.24594 59.1358 0.5 68 0.5C76.8642 0.5 85.6417 2.24594 93.8311 5.63813C102.021 9.03032 109.462 14.0023 115.73 20.2703C121.998 26.5382 126.97 33.9794 130.362 42.1689C133.754 50.3583 135.5 59.1358 135.5 68C135.5 85.9021 128.388 103.071 115.73 115.73C103.071 128.388 85.9021 135.5 68 135.5C50.0979 135.5 32.929 128.388 20.2703 115.73C7.61159 103.071 0.5 85.9021 0.5 68Z" fill="#E9EBEE" stroke="#646F7C" stroke-opacity="0.2"/>
<path d="M67.9894 77.639C81.836 77.639 93.0608 66.4141 93.0608 52.5675C93.0608 38.721 81.836 27.4961 67.9894 27.4961C54.1428 27.4961 42.918 38.721 42.918 52.5675C42.918 66.4141 54.1428 77.639 67.9894 77.639Z" fill="#646F7C"/>
<path fill-rule="evenodd" clip-rule="evenodd" d="M115.935 114.255C116.397 115.004 116.251 115.953 115.626 116.547C102.76 128.74 85.7076 135.525 67.9879 135.5C50.2681 135.525 33.2154 128.74 20.3493 116.547C20.0458 116.256 19.8499 115.871 19.7939 115.455C19.7379 115.039 19.825 114.616 20.041 114.255C28.9983 99.3823 47.1055 89.2148 67.9879 89.2148C88.8702 89.2148 106.97 99.3823 115.935 114.255Z" fill="#646F7C"/>
</svg>
