<svg width="40" height="40" viewBox="0 0 40 40" fill="none" xmlns="http://www.w3.org/2000/svg">
<path d="M7 16.2082V30.792C7 31.1787 7.15362 31.5496 7.42707 31.823C7.70051 32.0965 8.07139 32.2501 8.4581 32.2501H31.7919C32.1786 32.2501 32.5495 32.0965 32.8229 31.823C33.0964 31.5496 33.25 31.1787 33.25 30.792V16.2082M7 16.2082H33.25M7 16.2082V10.3751C7 9.98838 7.15362 9.61751 7.42707 9.34406C7.70051 9.07061 8.07139 8.91699 8.4581 8.91699H31.7919C32.1786 8.91699 32.5495 9.07061 32.8229 9.34406C33.0964 9.61751 33.25 9.98838 33.25 10.3751V16.2082" stroke="#646F7C" stroke-width="2" stroke-linecap="round" stroke-linejoin="round"/>
<path d="M25.9582 6V11.8331M14.292 6V11.8331" stroke="#646F7C" stroke-width="2" stroke-linecap="round" stroke-linejoin="round"/>
</svg>
