<svg width="40" height="40" viewBox="0 0 40 40" fill="none" xmlns="http://www.w3.org/2000/svg">
<path d="M29.3475 20.9855L19.1665 31.2427C18.0497 32.3679 16.5349 33 14.9554 33C13.3759 33 11.8612 32.3679 10.7443 31.2427C9.62744 30.1174 9 28.5913 9 27.0001C9 25.4088 9.62744 23.8827 10.7443 22.7574L25.2225 8.17099C25.5912 7.79962 26.029 7.50506 26.5108 7.30414C26.9926 7.10322 27.5089 6.99988 28.0304 7C28.5518 7.00012 29.0681 7.10372 29.5498 7.30486C30.0314 7.50601 30.4691 7.80077 30.8377 8.17232C31.2063 8.54387 31.4987 8.98493 31.6981 9.47031C31.8975 9.9557 32.0001 10.4759 32 11.0012C31.9999 11.5265 31.8971 12.0467 31.6974 12.532C31.4977 13.0173 31.2052 13.4582 30.8364 13.8296L16.3476 28.4267C15.9718 28.7897 15.4694 28.9881 14.9487 28.9815C14.4281 28.9748 13.9308 28.7623 13.5642 28.3898C13.1976 28.0173 12.9909 27.5146 12.9888 26.99C12.9866 26.4654 13.1891 25.961 13.5526 25.5854L23.8885 15.1722M16.3595 28.4134L16.3463 28.4267" stroke="black" stroke-width="2" stroke-linecap="round" stroke-linejoin="round"/>
</svg>
