<svg width="23" height="23" viewBox="0 0 23 23" fill="none" xmlns="http://www.w3.org/2000/svg">
<g clip-path="url(#clip0_4240_15231)">
<path d="M11.1221 2.10978C11.5011 1.41484 12.4989 1.41484 12.8779 2.10979L15.3553 6.6523C15.4991 6.91602 15.7539 7.10112 16.0491 7.15642L21.1349 8.1088C21.9129 8.2545 22.2213 9.20352 21.6774 9.77871L18.1228 13.5385C17.9164 13.7568 17.8191 14.0563 17.8578 14.3542L18.5236 19.4853C18.6254 20.2703 17.8182 20.8568 17.1031 20.5174L12.4288 18.2986C12.1575 18.1697 11.8425 18.1697 11.5712 18.2986L6.89693 20.5174C6.18184 20.8568 5.37456 20.2703 5.47642 19.4853L6.14223 14.3542C6.18088 14.0563 6.08357 13.7568 5.8772 13.5385L2.32255 9.77871C1.77874 9.20351 2.0871 8.2545 2.86514 8.1088L7.95087 7.15642C8.24613 7.10112 8.5009 6.91602 8.64473 6.6523L11.1221 2.10978Z" fill="#E9EBEE"/>
</g>
<defs>
<clipPath id="clip0_4240_15231">
<rect width="23" height="23" fill="white"/>
</clipPath>
</defs>
</svg>
