<svg width="40" height="40" viewBox="0 0 40 40" fill="none" xmlns="http://www.w3.org/2000/svg">
<path d="M31.7457 21.7482L20.8817 33.0436L10.0178 21.7482C9.30121 21.0162 8.73677 20.1363 8.36002 19.1641C7.98326 18.1918 7.80236 17.1481 7.82868 16.0989C7.85501 15.0496 8.08801 14.0174 8.513 13.0673C8.93798 12.1172 9.54576 11.2698 10.2981 10.5784C11.0503 9.88695 11.9309 9.36656 12.8841 9.04994C13.8374 8.73333 14.8428 8.62736 15.837 8.7387C16.8313 8.85004 17.7927 9.17627 18.661 9.69687C19.5292 10.2175 20.2853 10.9211 20.8817 11.7636C21.4807 10.9273 22.2377 10.2297 23.1054 9.71466C23.973 9.19959 24.9325 8.87806 25.9239 8.7702C26.9154 8.66234 27.9173 8.77047 28.8671 9.08782C29.8169 9.40518 30.6941 9.92492 31.4437 10.6145C32.1934 11.3041 32.7994 12.1487 33.2238 13.0955C33.6482 14.0423 33.8819 15.0708 33.9102 16.1168C33.9385 17.1627 33.7609 18.2035 33.3885 19.1741C33.016 20.1447 32.4567 21.0241 31.7457 21.7573" stroke="black" stroke-width="2" stroke-linecap="round" stroke-linejoin="round"/>
</svg>
