<svg width="40" height="40" viewBox="0 0 40 40" fill="none" xmlns="http://www.w3.org/2000/svg">
<g clip-path="url(#clip0_216_4196)">
<g filter="url(#filter0_d_216_4196)">
<path d="M19.2082 30.9802L13.8156 25.5876L8.42309 20.1951C8.26568 20.0375 8.14929 19.8437 8.0841 19.6307C8.01891 19.4178 8.00691 19.192 8.04914 18.9733C8.09138 18.7546 8.18656 18.5496 8.32637 18.3762C8.46618 18.2028 8.64635 18.0663 8.85112 17.9786L16.0225 14.9048C16.1872 14.8343 16.3364 14.732 16.4615 14.6039C16.5867 14.4757 16.6853 14.3241 16.7518 14.1578L21.0271 7.85659C21.1109 7.64726 21.2453 7.46199 21.4182 7.31737C21.5912 7.17275 21.7973 7.07329 22.0182 7.0279C22.239 6.98252 22.4677 6.99262 22.6837 7.05731C22.8997 7.122 23.0962 7.23926 23.2558 7.39857L32.6014 16.7442C32.7607 16.9037 32.878 17.1003 32.9427 17.3163C33.0074 17.5323 33.0175 17.7609 32.9721 17.9818C32.9267 18.2026 32.8272 18.4088 32.6826 18.5818C32.538 18.7547 32.3527 18.8891 32.1434 18.9729L25.2455 22.6515C25.0792 22.718 24.9276 22.8166 24.7994 22.9418C24.6712 23.0669 24.569 23.2161 24.4985 23.3807L21.4246 30.5521C21.337 30.7569 21.2005 30.9371 21.0271 31.0769C20.8537 31.2167 20.6487 31.3119 20.4299 31.3541C20.2112 31.3964 19.9855 31.3844 19.7725 31.3192C19.5595 31.254 19.3658 31.1376 19.2082 30.9802Z" fill="white"/>
<path d="M7 32.4035L13.8157 25.5879M13.8157 25.5879L19.2082 30.9804C19.3658 31.1378 19.5596 31.2542 19.7725 31.3194C19.9855 31.3846 20.2113 31.3966 20.43 31.3543C20.6487 31.3121 20.8537 31.2169 21.0271 31.0771C21.2005 30.9373 21.337 30.7571 21.4246 30.5524L24.4985 23.381C24.569 23.2163 24.6712 23.0671 24.7994 22.942C24.9276 22.8168 25.0792 22.7182 25.2455 22.6517L32.1434 18.9729C32.3527 18.8891 32.538 18.7547 32.6826 18.5818C32.8272 18.4088 32.9267 18.2026 32.9721 17.9818C33.0175 17.7609 33.0074 17.5323 32.9427 17.3163C32.878 17.1003 32.7607 16.9037 32.6014 16.7442L23.2558 7.39857C23.0963 7.23926 22.8997 7.122 22.6837 7.05731C22.4677 6.99262 22.2391 6.98252 22.0182 7.0279C21.7974 7.07329 21.5912 7.17275 21.4182 7.31737C21.2453 7.46199 21.1109 7.64726 21.0271 7.85659L16.7518 14.158C16.6853 14.3243 16.5867 14.4759 16.4615 14.6041C16.3364 14.7323 16.1872 14.8345 16.0226 14.905L8.85113 17.9789C8.64636 18.0665 8.46619 18.203 8.32638 18.3764C8.18657 18.5498 8.09139 18.7548 8.04916 18.9735C8.00692 19.1923 8.01893 19.418 8.08412 19.631C8.14931 19.844 8.2657 20.0377 8.42311 20.1953L13.8157 25.5879Z" stroke="white" stroke-width="2" stroke-linecap="round" stroke-linejoin="round"/>
</g>
</g>
<defs>
<filter id="filter0_d_216_4196" x="-2.1" y="-2.1" width="44.2" height="43.6033" filterUnits="userSpaceOnUse" color-interpolation-filters="sRGB">
<feFlood flood-opacity="0" result="BackgroundImageFix"/>
<feColorMatrix in="SourceAlpha" type="matrix" values="0 0 0 0 0 0 0 0 0 0 0 0 0 0 0 0 0 0 127 0" result="hardAlpha"/>
<feOffset/>
<feGaussianBlur stdDeviation="4.05"/>
<feComposite in2="hardAlpha" operator="out"/>
<feColorMatrix type="matrix" values="0 0 0 0 0 0 0 0 0 0 0 0 0 0 0 0 0 0 0.2 0"/>
<feBlend mode="normal" in2="BackgroundImageFix" result="effect1_dropShadow_216_4196"/>
<feBlend mode="normal" in="SourceGraphic" in2="effect1_dropShadow_216_4196" result="shape"/>
</filter>
<clipPath id="clip0_216_4196">
<rect width="40" height="40" fill="white"/>
</clipPath>
</defs>
</svg>
