<svg width="60" height="60" viewBox="0 0 60 60" fill="none" xmlns="http://www.w3.org/2000/svg">
<path d="M7.82617 30.6523C7.82617 27.6547 8.41659 24.6865 9.5637 21.9171C10.7108 19.1477 12.3922 16.6314 14.5118 14.5118C16.6314 12.3922 19.1477 10.7108 21.9171 9.5637C24.6865 8.41659 27.6547 7.82617 30.6523 7.82617C33.6498 7.82617 36.618 8.41659 39.3874 9.5637C42.1568 10.7108 44.6731 12.3922 46.7927 14.5118C48.9123 16.6314 50.5937 19.1477 51.7408 21.9171C52.8879 24.6865 53.4783 27.6547 53.4783 30.6523C53.4783 36.7061 51.0735 42.512 46.7927 46.7927C42.512 51.0735 36.7061 53.4783 30.6523 53.4783C24.5984 53.4783 18.7925 51.0735 14.5118 46.7927C10.2311 42.512 7.82617 36.7061 7.82617 30.6523Z" fill="#E9EBEE" stroke="#646F7C" stroke-opacity="0.2"/>
<path d="M30.6521 33.9131C35.3345 33.9131 39.1304 30.1172 39.1304 25.4348C39.1304 20.7524 35.3345 16.9565 30.6521 16.9565C25.9697 16.9565 22.1738 20.7524 22.1738 25.4348C22.1738 30.1172 25.9697 33.9131 30.6521 33.9131Z" fill="#646F7C"/>
<path fill-rule="evenodd" clip-rule="evenodd" d="M46.8649 46.294C47.0213 46.547 46.9718 46.8679 46.7607 47.0688C42.4098 51.1921 36.6432 53.4865 30.651 53.4783C24.6588 53.4865 18.8922 51.1921 14.5413 47.0688C14.4387 46.9706 14.3724 46.8405 14.3535 46.6997C14.3346 46.5589 14.364 46.4158 14.4371 46.294C17.4661 41.2644 23.5893 37.8262 30.651 37.8262C37.7126 37.8262 43.8333 41.2644 46.8649 46.294Z" fill="#646F7C"/>
</svg>
