<svg width="40" height="40" viewBox="0 0 40 40" fill="none" xmlns="http://www.w3.org/2000/svg">
<path d="M25.75 16H28.375C29.0712 16 29.7389 16.2634 30.2312 16.7322C30.7234 17.2011 31 17.837 31 18.5V30.5C31 31.163 30.7234 31.7989 30.2312 32.2678C29.7389 32.7366 29.0712 33 28.375 33H12.625C11.9288 33 11.2611 32.7366 10.7688 32.2678C10.2766 31.7989 10 31.163 10 30.5V18.5C10 17.837 10.2766 17.2011 10.7688 16.7322C11.2611 16.2634 11.9288 16 12.625 16H15.25M25.75 12L20.5 7M20.5 7L15.25 12M20.5 7V24.0625" stroke="black" stroke-width="2" stroke-linecap="round" stroke-linejoin="round"/>
</svg>
