<svg width="13" height="12" viewBox="0 0 13 12" fill="none" xmlns="http://www.w3.org/2000/svg">
<path d="M5.27051 0.519943C5.64951 -0.174998 6.64737 -0.174999 7.02636 0.519942L8.2576 2.77757C8.40143 3.0413 8.6562 3.2264 8.95147 3.28169L11.4791 3.75502C12.2571 3.90072 12.5655 4.84974 12.0217 5.42494L10.255 7.29356C10.0486 7.51185 9.95131 7.81134 9.98997 8.10924L10.3209 10.6594C10.4227 11.4444 9.61545 12.0309 8.90036 11.6915L6.57727 10.5887C6.30589 10.4599 5.99098 10.4599 5.71961 10.5887L3.39652 11.6915C2.68142 12.0309 1.87414 11.4444 1.976 10.6594L2.3069 8.10924C2.34556 7.81134 2.24825 7.51185 2.04187 7.29356L0.275217 5.42494C-0.268594 4.84974 0.03976 3.90072 0.817806 3.75502L3.34541 3.28169C3.64067 3.2264 3.89544 3.0413 4.03927 2.77757L5.27051 0.519943Z" fill="#FFCF41"/>
</svg>
