<svg width="40" height="40" viewBox="0 0 40 40" fill="none" xmlns="http://www.w3.org/2000/svg">
<path d="M11 26H9V11H22V25M11 26C11 25.2044 11.3161 24.4413 11.8787 23.8787C12.4413 23.3161 13.2044 23 14 23C14.7956 23 15.5587 23.3161 16.1213 23.8787C16.6839 24.4413 17 25.2044 17 26M11 26C11 26.7956 11.3161 27.5587 11.8787 28.1213C12.4413 28.6839 13.2044 29 14 29C14.7956 29 15.5587 28.6839 16.1213 28.1213C16.6839 27.5587 17 26.7956 17 26M22 26H17M22 26C22 25.2044 22.3161 24.4413 22.8787 23.8787C23.4413 23.3161 24.2044 23 25 23C25.7956 23 26.5587 23.3161 27.1213 23.8787C27.6839 24.4413 28 25.2044 28 26M22 26C22 26.7956 22.3161 27.5587 22.8787 28.1213C23.4413 28.6839 24.2044 29 25 29C25.7956 29 26.5587 28.6839 27.1213 28.1213C27.6839 27.5587 28 26.7956 28 26M28 26H31V21L27 16H22" stroke="black" stroke-width="1.5" stroke-linecap="round" stroke-linejoin="round"/>
</svg>
