<svg width="37" height="34" viewBox="0 0 37 34" fill="none" xmlns="http://www.w3.org/2000/svg">
<path d="M32.5363 17.9046L18.0994 32.75L3.66241 17.9046C2.71016 16.9425 1.96008 15.7861 1.45942 14.5083C0.958758 13.2304 0.71835 11.8588 0.753338 10.4797C0.788325 9.10069 1.09795 7.7441 1.66271 6.49539C2.22748 5.24668 3.03514 4.13291 4.03486 3.22421C5.03457 2.31551 6.20467 1.63156 7.47148 1.21544C8.73829 0.799325 10.0744 0.660047 11.3956 0.806377C12.7168 0.952708 13.9945 1.38148 15.1482 2.06569C16.302 2.7499 17.3068 3.67473 18.0994 4.78194C18.8954 3.68277 19.9014 2.76602 21.0543 2.08907C22.2073 1.41212 23.4824 0.989543 24.7999 0.847785C26.1174 0.706027 27.4489 0.848141 28.7111 1.26523C29.9732 1.68232 31.1389 2.36541 32.1351 3.27174C33.1313 4.17808 33.9366 5.28815 34.5006 6.53248C35.0646 7.77681 35.3751 9.12861 35.4128 10.5033C35.4504 11.8779 35.2144 13.2459 34.7195 14.5215C34.2245 15.7971 33.4813 16.9529 32.5363 17.9166" fill="black" fill-opacity="0.4"/>
<path d="M32.5363 17.9046L18.0994 32.75L3.66241 17.9046C2.71016 16.9425 1.96008 15.7861 1.45942 14.5083C0.958758 13.2304 0.71835 11.8588 0.753338 10.4797C0.788325 9.10069 1.09795 7.7441 1.66271 6.49539C2.22748 5.24668 3.03514 4.13291 4.03486 3.22421C5.03457 2.31551 6.20467 1.63156 7.47148 1.21544C8.73829 0.799325 10.0744 0.660047 11.3956 0.806377C12.7168 0.952708 13.9945 1.38148 15.1482 2.06569C16.302 2.7499 17.3068 3.67473 18.0994 4.78194C18.8954 3.68277 19.9014 2.76602 21.0543 2.08907C22.2073 1.41212 23.4824 0.989543 24.7999 0.847785C26.1174 0.706027 27.4489 0.848141 28.7111 1.26523C29.9732 1.68232 31.1389 2.36541 32.1351 3.27174C33.1313 4.17808 33.9366 5.28815 34.5006 6.53248C35.0646 7.77681 35.3751 9.12861 35.4128 10.5033C35.4504 11.8779 35.2144 13.2459 34.7195 14.5215C34.2245 15.7971 33.4813 16.9529 32.5363 17.9166" stroke="white" stroke-width="1.5" stroke-linecap="round" stroke-linejoin="round"/>
</svg>
