<svg width="30" height="30" viewBox="0 0 30 30" fill="none" xmlns="http://www.w3.org/2000/svg">
<mask id="path-1-inside-1_4_657" fill="white">
<path d="M26.6736 16.402L15.013 28L3.35233 16.402C2.5832 15.6504 1.97738 14.747 1.57299 13.7487C1.16861 12.7503 0.974437 11.6787 1.0027 10.6014C1.03095 9.52398 1.28104 8.46414 1.73719 7.48859C2.19335 6.51303 2.84569 5.6429 3.65315 4.93298C4.46061 4.22305 5.4057 3.68872 6.42889 3.36363C7.45208 3.03854 8.53121 2.92972 9.59833 3.04404C10.6655 3.15837 11.6975 3.49334 12.6293 4.02788C13.5612 4.56242 14.3728 5.28495 15.013 6.14995C15.6559 5.29123 16.4684 4.57501 17.3997 4.04615C18.3309 3.51728 19.3608 3.18714 20.4249 3.07639C21.4891 2.96565 22.5645 3.07667 23.5839 3.40252C24.6034 3.72838 25.5449 4.26204 26.3495 4.97011C27.1541 5.67819 27.8045 6.54543 28.2601 7.51756C28.7156 8.48969 28.9664 9.54579 28.9969 10.6197C29.0273 11.6937 28.8366 12.7624 28.4369 13.759C28.0371 14.7555 27.4368 15.6585 26.6736 16.4114"/>
</mask>
<path d="M28.084 17.82C28.8671 17.0411 28.8705 15.7748 28.0916 14.9916C27.3127 14.2085 26.0463 14.2051 25.2632 14.984L26.6736 16.402L28.084 17.82ZM15.013 28L13.6026 29.418C14.3827 30.194 15.6432 30.194 16.4234 29.418L15.013 28ZM3.35233 16.402L4.76273 14.984C4.75857 14.9799 4.75438 14.9757 4.75018 14.9716L3.35233 16.402ZM15.013 6.14995L13.4053 7.33972C13.7813 7.84777 14.3753 8.14819 15.0074 8.14995C15.6394 8.1517 16.2351 7.85459 16.6139 7.34864L15.013 6.14995ZM25.2691 14.9875C24.4827 15.7632 24.474 17.0295 25.2497 17.8159C26.0254 18.6023 27.2917 18.6109 28.0781 17.8352L26.6736 16.4114L25.2691 14.9875ZM26.6736 16.402L25.2632 14.984L13.6026 26.582L15.013 28L16.4234 29.418L28.084 17.82L26.6736 16.402ZM15.013 28L16.4234 26.582L4.76273 14.984L3.35233 16.402L1.94193 17.82L13.6026 29.418L15.013 28ZM3.35233 16.402L4.75018 14.9716C4.17853 14.413 3.72775 13.741 3.42669 12.9978L1.57299 13.7487L-0.280705 14.4995C0.227003 15.7529 0.987877 16.8878 1.95448 17.8324L3.35233 16.402ZM1.57299 13.7487L3.42669 12.9978C3.12563 12.2545 2.98096 11.4564 3.00201 10.6538L1.0027 10.6014L-0.996617 10.5489C-1.03208 11.9011 -0.788405 13.2461 -0.280705 14.4995L1.57299 13.7487ZM1.0027 10.6014L3.00201 10.6538C3.02306 9.85118 3.20937 9.0619 3.54892 8.33573L1.73719 7.48859L-0.0745368 6.64145C-0.647297 7.86638 -0.961151 9.19677 -0.996617 10.5489L1.0027 10.6014ZM1.73719 7.48859L3.54892 8.33573C3.88846 7.60957 4.37374 6.96251 4.97374 6.435L3.65315 4.93298L2.33257 3.43096C1.31765 4.32328 0.498233 5.4165 -0.0745368 6.64145L1.73719 7.48859ZM3.65315 4.93298L4.97374 6.435C5.57371 5.9075 6.27542 5.51091 7.0345 5.26973L6.42889 3.36363L5.82327 1.45753C4.53597 1.86653 3.34752 2.53861 2.33257 3.43096L3.65315 4.93298ZM6.42889 3.36363L7.0345 5.26973C7.79357 5.02856 8.59392 4.94789 9.38529 5.03267L9.59833 3.04404L9.81137 1.05542C8.4685 0.911561 7.11059 1.04851 5.82327 1.45753L6.42889 3.36363ZM9.59833 3.04404L9.38529 5.03267C10.1767 5.11745 10.9424 5.36589 11.6342 5.76273L12.6293 4.02788L13.6245 2.29303C12.4525 1.62079 11.1542 1.19929 9.81137 1.05542L9.59833 3.04404ZM12.6293 4.02788L11.6342 5.76273C12.326 6.15958 12.9292 6.69636 13.4053 7.33972L15.013 6.14995L16.6206 4.96019C15.8164 3.87353 14.7964 2.96526 13.6245 2.29303L12.6293 4.02788ZM15.013 6.14995L16.6139 7.34864C17.0921 6.70997 17.696 6.17789 18.3873 5.78526L17.3997 4.04615L16.412 2.30704C15.2409 2.97214 14.2197 3.87248 13.412 4.95127L15.013 6.14995ZM17.3997 4.04615L18.3873 5.78526C19.0787 5.39264 19.8428 5.14778 20.632 5.06565L20.4249 3.07639L20.2179 1.08714C18.8788 1.2265 17.5831 1.64192 16.412 2.30704L17.3997 4.04615ZM20.4249 3.07639L20.632 5.06565C21.4211 4.98352 22.2187 5.06583 22.975 5.30757L23.5839 3.40252L24.1929 1.49748C22.9103 1.08751 21.557 0.947772 20.2179 1.08714L20.4249 3.07639ZM23.5839 3.40252L22.975 5.30757C23.7313 5.54932 24.4304 5.94541 25.0282 6.47153L26.3495 4.97011L27.6708 3.46869C26.6594 2.57867 25.4754 1.90744 24.1929 1.49748L23.5839 3.40252ZM26.3495 4.97011L25.0282 6.47153C25.6261 6.99768 26.11 7.64258 26.449 8.36619L28.2601 7.51756L30.0711 6.66893C29.4991 5.44827 28.6821 4.35869 27.6708 3.46869L26.3495 4.97011ZM28.2601 7.51756L26.449 8.36619C26.7881 9.08982 26.975 9.87631 26.9977 10.6764L28.9969 10.6197L30.9961 10.5631C30.9579 9.21527 30.6431 7.88957 30.0711 6.66893L28.2601 7.51756ZM28.9969 10.6197L26.9977 10.6764C27.0203 11.4765 26.8783 12.2724 26.5807 13.0144L28.4369 13.759L30.2931 14.5036C30.795 13.2524 31.0342 11.911 30.9961 10.5631L28.9969 10.6197ZM28.4369 13.759L26.5807 13.0144C26.283 13.7563 25.8364 14.428 25.2691 14.9875L26.6736 16.4114L28.0781 17.8352C29.0373 16.8891 29.7912 15.7548 30.2931 14.5036L28.4369 13.759Z" fill="white" mask="url(#path-1-inside-1_4_657)"/>
</svg>
