<svg width="40" height="40" viewBox="0 0 40 40" fill="none" xmlns="http://www.w3.org/2000/svg">
<path d="M34.4531 22.4881L20.0161 37.3335L5.57916 22.4881C4.62691 21.526 3.87683 20.3696 3.37617 19.0918C2.87551 17.8139 2.6351 16.4423 2.67009 15.0632C2.70507 13.6842 3.0147 12.3276 3.57946 11.0789C4.14422 9.83018 4.95189 8.71641 5.95161 7.80771C6.95132 6.89901 8.12142 6.21506 9.38823 5.79894C10.655 5.38282 11.9911 5.24354 13.3123 5.38987C14.6335 5.5362 15.9112 5.96497 17.065 6.64919C18.2187 7.3334 19.2235 8.25823 20.0161 9.36544C20.8121 8.26626 21.8181 7.34951 22.9711 6.67257C24.124 5.99562 25.3992 5.57304 26.7167 5.43128C28.0342 5.28952 29.3657 5.43164 30.6278 5.84873C31.89 6.26582 33.0556 6.94891 34.0518 7.85524C35.048 8.76157 35.8533 9.87164 36.4173 11.116C36.9813 12.3603 37.2919 13.7121 37.3295 15.0868C37.3672 16.4614 37.1312 17.8294 36.6362 19.105C36.1413 20.3806 35.3981 21.5364 34.4531 22.5001" fill="black" fill-opacity="0.4"/>
<path d="M34.4531 22.4881L20.0161 37.3335L5.57916 22.4881C4.62691 21.526 3.87683 20.3696 3.37617 19.0918C2.87551 17.8139 2.6351 16.4423 2.67009 15.0632C2.70507 13.6842 3.0147 12.3276 3.57946 11.0789C4.14422 9.83018 4.95189 8.71641 5.95161 7.80771C6.95132 6.89901 8.12142 6.21506 9.38823 5.79894C10.655 5.38282 11.9911 5.24354 13.3123 5.38987C14.6335 5.5362 15.9112 5.96497 17.065 6.64919C18.2187 7.3334 19.2235 8.25823 20.0161 9.36544C20.8121 8.26626 21.8181 7.34951 22.9711 6.67257C24.124 5.99562 25.3992 5.57304 26.7167 5.43128C28.0342 5.28952 29.3657 5.43164 30.6278 5.84873C31.89 6.26582 33.0556 6.94891 34.0518 7.85524C35.048 8.76157 35.8533 9.87164 36.4173 11.116C36.9813 12.3603 37.2919 13.7121 37.3295 15.0868C37.3672 16.4614 37.1312 17.8294 36.6362 19.105C36.1413 20.3806 35.3981 21.5364 34.4531 22.5001" stroke="white" stroke-width="1.5" stroke-linecap="round" stroke-linejoin="round"/>
</svg>
