<svg width="33" height="23" viewBox="0 0 33 23" fill="none" xmlns="http://www.w3.org/2000/svg">
<path d="M2.47556 7.54017L7.05091 21.6182C7.3187 22.4421 8.08657 23 8.95297 23H25.4336C26.3512 23 27.151 22.3757 27.3738 21.4855L30.8635 7.54146C31.2909 5.83355 29.4624 4.4465 27.9328 5.31838L24.1377 7.48173C23.386 7.91018 22.4442 7.80677 21.8034 7.22545L18.4897 4.21916C17.7273 3.5275 16.5644 3.5275 15.802 4.21915L12.4273 7.28074C11.8164 7.83495 10.928 7.95729 10.19 7.58882L5.27108 5.13266C3.6839 4.34014 1.92722 5.85299 2.47556 7.54017Z" fill="#FFB300"/>
<circle cx="17.5" cy="2.5" r="2.5" fill="#FFB200"/>
<circle cx="30.5" cy="4.5" r="2.5" fill="#FFB200"/>
<circle cx="2.5" cy="4.5" r="2.5" fill="#FFB200"/>
</svg>
