<svg width="88" height="95" viewBox="0 0 88 95" fill="none" xmlns="http://www.w3.org/2000/svg">
<path d="M42.7864 46.6598C42.0317 16.7667 30.1374 0 30.1374 0C19.0838 6.62495 16.9629 13.7822 15.7209 19.2475C13.3325 29.8075 20.8895 58.9307 20.8895 58.9307C9.05249 59.4059 0.540217 62.2289 0.0147669 75.3457C-0.625327 91.1905 19.6953 99.7354 31.5227 91.6372C43.3405 83.5295 43.5316 76.5433 42.7864 46.6598ZM19.9341 83.5865C15.7018 83.596 12.2625 80.1932 12.2434 75.9825C12.2339 71.7719 15.6541 68.3501 19.8863 68.3311C24.1186 68.3121 27.5579 71.7243 27.577 75.935C27.5961 80.1457 24.1664 83.5675 19.9341 83.5865Z" fill="black"/>
<path d="M87.9796 75.4783C87.3777 62.352 78.8463 59.5956 66.9998 59.1869C66.9998 59.1869 74.3752 30.0257 71.9295 19.4657C70.6589 14.0099 68.4902 6.87165 57.3984 0.313232C57.3984 0.313232 45.6092 17.1465 45.036 47.0396C44.4723 76.9326 44.7111 83.9092 56.5672 91.9504C68.4424 99.9916 88.7152 91.3136 87.9796 75.4879V75.4783ZM68.0985 83.8332C63.8662 83.8427 60.4269 80.4399 60.4078 76.2292C60.3887 72.0186 63.8184 68.6063 68.0507 68.5968C72.283 68.5873 75.7223 71.99 75.7414 76.1912C75.7605 80.3924 72.3307 83.8237 68.0985 83.8427V83.8332Z" fill="black"/>
</svg>
