<svg width="191" height="45" viewBox="0 0 191 45" fill="none" xmlns="http://www.w3.org/2000/svg">
<g clip-path="url(#clip0_498_8884)">
<path d="M171.241 21.0747C170.909 7.85578 165.676 0.441406 165.676 0.441406C160.813 3.37101 159.88 6.53599 159.333 8.95281C158.283 13.6225 161.607 26.501 161.607 26.501C156.4 26.7112 152.655 27.9595 152.423 33.7599C152.142 40.7665 161.082 44.5452 166.286 40.9641C171.485 37.3788 171.569 34.2895 171.241 21.0747ZM161.187 37.404C159.325 37.4082 157.812 35.9035 157.804 34.0415C157.799 32.1795 159.304 30.6663 161.166 30.6579C163.028 30.6495 164.541 32.1585 164.55 34.0205C164.558 35.8825 163.049 37.3956 161.187 37.404Z" fill="#05D4CD"/>
<path d="M190.992 33.8187C190.727 28.0141 186.973 26.7952 181.761 26.6145C181.761 26.6145 185.006 13.7192 183.93 9.04945C183.371 6.63683 182.417 3.48026 177.537 0.580078C177.537 0.580078 172.351 8.02387 172.098 21.2428C171.85 34.4618 171.956 37.5469 177.172 41.1027C182.396 44.6586 191.315 40.8211 190.992 33.8229V33.8187ZM182.245 37.5132C180.383 37.5174 178.87 36.0127 178.861 34.1507C178.853 32.2887 180.362 30.7798 182.224 30.7756C184.086 30.7714 185.599 32.2761 185.607 34.1339C185.616 35.9917 184.107 37.509 182.245 37.5175V37.5132Z" fill="#05D4CD"/>
<path d="M9.16709 35.7521C4.88407 35.7521 2.15202 33.1672 0.975133 28.0015C0.323643 25.2274 0 21.8439 0 17.8593C0 14.1395 0.294221 9.28063 0.886867 3.28692H6.20386C5.5818 9.31005 5.27497 14.1983 5.27497 17.9475C5.27497 21.6968 5.55658 24.5171 6.1156 26.8498C6.46866 28.2957 6.95623 29.3381 7.5783 29.9728C8.19616 30.6075 8.96534 30.9269 9.88163 30.9269C10.7979 30.9269 11.8613 30.6621 13.0718 30.1283C14.2823 29.5987 15.9804 28.7413 18.1661 27.5602L19.0529 27.0726V32.6964C15.1566 34.735 11.8613 35.7521 9.1755 35.7521H9.16709ZM33.4866 2.13525V40.7581H28.1696V22.3314H25.5132V38.543H20.1962V2.57659H25.5132V17.0144H28.1696V2.13525H33.4866Z" fill="#05D4CD"/>
<path d="M47.9201 12.6809L48.9121 6.87637L54.1492 7.77164L53.1783 13.4459L58.3146 14.1436C58.9324 13.5006 59.3948 12.807 59.7016 12.0673C60.0084 11.3275 60.2816 10.2557 60.5212 8.86026L65.7583 9.75553C65.3885 11.9076 64.8925 13.5762 64.2746 14.7573C67.3513 14.9843 69.5916 15.1146 70.9955 15.144L70.1591 20.0323C66.7083 19.8894 62.6606 19.5573 58.0161 19.0319L57.6715 21.041L72.9962 23.6638L72.2102 28.2494L36.7607 22.1801L37.5467 17.5944L52.8715 20.2172L53.1867 18.3846C50.173 17.9601 46.1338 17.3128 41.069 16.447L41.8928 11.6428L47.9159 12.6725L47.9201 12.6809ZM44.4735 0L72.0211 4.71595L71.1972 9.52016L43.6497 4.80421L44.4735 0ZM40.5352 24.8533L67.7759 29.5146L65.1909 44.6207L45.3268 41.2204C43.3765 40.8883 41.8844 40.0981 40.8546 38.8582C39.8248 37.6183 39.4718 36.0379 39.7996 34.117C39.9047 33.5076 40.0602 32.9318 40.2746 32.4022C40.5772 31.675 41.0143 30.868 41.5902 29.9769L39.7114 29.6575L40.5352 24.8533ZM44.9527 35.2687C44.8939 35.6176 44.9443 35.874 45.1124 36.0379C45.2805 36.2018 45.6252 36.3279 46.1506 36.4162L60.7776 38.9213L61.7191 33.4193L47.3989 30.9689C46.5415 31.9608 45.8312 33.0536 45.2637 34.2431C45.104 34.6635 44.9989 35.0081 44.9527 35.2687Z" fill="#05D4CD"/>
<path d="M76.3168 16.9724H89.3382C90.5487 16.9724 91.4356 16.632 91.9946 15.9552C92.5536 15.2743 92.8352 14.4211 92.8352 13.3871C92.8352 12.6179 92.7007 11.874 92.4359 11.151C92.1711 10.4281 91.8433 9.87327 91.4608 9.49078C90.3974 8.42738 88.9809 7.89779 87.2072 7.89779C85.051 7.89779 82.424 8.72581 79.3221 10.3777L76.7539 6.12405C80.4737 4.08552 84.017 3.06836 87.3837 3.06836C90.7505 3.06836 93.2892 4.0561 95.2689 6.03579C96.1557 6.95208 96.8492 8.05751 97.3494 9.35628C97.8496 10.6551 98.1018 11.9833 98.1018 13.3409C98.1018 14.8456 97.7824 16.2495 97.1477 17.5482C96.513 18.847 95.5379 19.8894 94.2265 20.6712C92.9109 21.453 91.2801 21.8439 89.334 21.8439H84.017C83.458 22.819 83.0124 23.7269 82.6888 24.5675C82.3652 25.4082 82.2012 26.2278 82.2012 27.0264C82.2012 28.178 82.6005 29.1364 83.3991 29.9055C84.286 30.763 85.673 31.1917 87.5603 31.1917C89.2121 31.1917 91.1161 30.8681 93.2724 30.2166C95.4286 29.5651 97.526 28.7118 99.5603 27.6484V33.142C97.61 33.9994 95.5799 34.6929 93.4699 35.2225C91.3599 35.7521 89.3592 36.0211 87.4678 36.0211C84.0716 36.0211 81.4741 35.1343 79.6709 33.3647C77.8089 31.5364 76.88 29.4222 76.88 27.0306C76.88 25.4376 77.2919 23.7101 78.12 21.8481H76.3042V16.9766L76.3168 16.9724ZM108.076 2.13525V40.7581H102.759V2.13525H108.076Z" fill="#05D4CD"/>
<path d="M123.178 12.6767L124.17 6.87217L129.407 7.76744L128.436 13.4417L133.572 14.1394C134.19 13.4963 134.653 12.8028 134.964 12.0631C135.27 11.3233 135.544 10.2515 135.783 8.85606L141.02 9.75133C140.65 11.9033 140.154 13.572 139.537 14.7531C142.613 14.9801 144.854 15.1104 146.257 15.1398L145.421 20.0281C141.97 19.8851 137.923 19.5531 133.278 19.0277L132.933 21.0368L148.258 23.6596L147.472 28.2452L112.023 22.1759L112.809 17.5902L128.133 20.213L128.449 18.3804C125.435 17.9559 121.396 17.3086 116.331 16.4428L117.155 11.6385L123.182 12.6683L123.178 12.6767ZM119.731 0L147.279 4.71595L146.455 9.52016L118.907 4.80421L119.731 0ZM115.793 24.8491L143.034 29.5104L140.449 44.6165L120.585 41.2162C118.634 40.8841 117.142 40.0939 116.112 38.854C115.083 37.6141 114.73 36.0337 115.057 34.1128C115.162 33.5034 115.318 32.9276 115.532 32.398C115.835 31.6708 116.272 30.8638 116.848 29.9727L114.969 29.6533L115.793 24.8491ZM120.21 35.2687C120.152 35.6176 120.202 35.874 120.37 36.0379C120.534 36.2018 120.883 36.3279 121.404 36.4162L136.031 38.9213L136.973 33.4193L122.653 30.9689C121.795 31.9608 121.081 33.0536 120.517 34.2431C120.353 34.6635 120.252 35.0081 120.206 35.2687H120.21Z" fill="#05D4CD"/>
</g>
<defs>
<clipPath id="clip0_498_8884">
<rect width="191" height="44.6207" fill="white"/>
</clipPath>
</defs>
</svg>
