<svg width="99" height="106" viewBox="0 0 99 106" fill="none" xmlns="http://www.w3.org/2000/svg">
<g clip-path="url(#clip0_498_8883)">
<path d="M47.4403 33.6523C46.8996 12.0928 38.3685 0 38.3685 0C30.4382 4.78049 28.9148 9.94291 28.0265 13.8823C26.3143 21.4993 31.7341 42.5052 31.7341 42.5052C23.2374 42.8485 17.1309 44.8826 16.7533 54.3449C16.2941 65.7769 30.8759 71.9349 39.3641 66.0944C47.8436 60.2454 47.981 55.2074 47.4488 33.6523H47.4403ZM31.0475 60.284C28.0093 60.2926 25.5418 57.838 25.5332 54.7997C25.5247 51.7615 27.9793 49.294 31.0175 49.2854C34.0557 49.2769 36.5232 51.7315 36.5318 54.7697C36.5404 57.8079 34.0858 60.2754 31.0475 60.284Z" fill="#05D4CD"/>
<path d="M79.6551 54.4393C79.2216 44.9727 73.1023 42.9815 64.6012 42.6897C64.6012 42.6897 69.8924 21.6538 68.1372 14.0368C67.2275 10.1017 65.674 4.95643 57.7137 0.223145C57.7137 0.223145 49.2513 12.3675 48.8393 33.9226C48.4359 55.4863 48.6033 60.5157 57.1172 66.3133C65.6397 72.1108 80.1829 65.8541 79.6551 54.435V54.4393ZM65.3908 60.4599C62.3526 60.4685 59.8851 58.0139 59.8765 54.9757C59.8679 51.946 62.3225 49.4785 65.3608 49.4657C68.399 49.4571 70.8665 51.9117 70.8751 54.9413C70.8837 57.9796 68.4291 60.4471 65.3908 60.4557V60.4599Z" fill="#05D4CD"/>
<path d="M6.12367 99.7383C3.26567 99.7383 1.44187 98.0132 0.652276 94.563C0.218856 92.7091 0 90.4519 0 87.7913C0 85.3067 0.197399 82.0624 0.592198 78.0587H4.14109C3.72484 82.0796 3.51886 85.3453 3.51886 87.8471C3.51886 90.3489 3.70767 92.2328 4.08101 93.7905C4.31704 94.7561 4.64317 95.4513 5.05514 95.8761C5.4671 96.3009 5.98205 96.5112 6.59142 96.5112C7.20078 96.5112 7.91313 96.3353 8.7199 95.9791C9.52666 95.6229 10.6596 95.0522 12.1229 94.2626L12.7151 93.9364V97.6913C10.1103 99.0516 7.91313 99.734 6.11938 99.734L6.12367 99.7383ZM22.3576 77.2905V103.081H18.8087V90.778H17.0321V101.601H13.4832V77.5866H17.0321V87.2292H18.8087V77.2905H22.3576Z" fill="#05D4CD"/>
<path d="M32.0002 84.3324L32.6653 80.4574L36.1627 81.0582L35.5147 84.8474L38.9478 85.3151C39.3597 84.886 39.6687 84.4226 39.8747 83.9291C40.0807 83.4356 40.2609 82.7189 40.4197 81.7877L43.9171 82.3885C43.6725 83.8261 43.342 84.9418 42.9258 85.7314C44.9813 85.8816 46.4747 85.9674 47.4145 85.9889L46.8566 89.2545C44.5522 89.1601 41.8487 88.937 38.7504 88.5851L38.5229 89.924L48.7534 91.6748L48.2298 94.7345L24.5591 90.6835L25.0826 87.6239L35.313 89.3747L35.5233 88.1517C33.5107 87.8685 30.8158 87.435 27.4342 86.8557L27.9835 83.6501L32.0045 84.3367L32.0002 84.3324ZM29.6958 75.8657L48.0925 79.0155L47.5432 82.2211L29.1465 79.0713L29.6958 75.8657ZM27.0652 92.4601L45.256 95.5756L43.5309 105.66L30.2665 103.39C28.9662 103.167 27.9707 102.643 27.2798 101.815C26.5932 100.987 26.3571 99.9313 26.576 98.6482C26.6446 98.2405 26.7519 97.8586 26.8935 97.5024C27.0952 97.0175 27.387 96.4768 27.769 95.8803L26.5159 95.6657L27.0652 92.4601ZM30.0176 99.4163C29.979 99.648 30.0133 99.8197 30.1249 99.9313C30.2365 100.039 30.4682 100.124 30.8158 100.184L40.5827 101.858L41.2136 98.1847L31.6526 96.5497C31.0775 97.2106 30.6055 97.9401 30.2279 98.7383C30.1206 99.0215 30.0519 99.2489 30.0219 99.4206L30.0176 99.4163Z" fill="#05D4CD"/>
<path d="M50.959 87.1991H59.6532C60.4599 87.1991 61.0521 86.9717 61.4298 86.5168C61.8031 86.0619 61.9919 85.4912 61.9919 84.8003C61.9919 84.2896 61.9018 83.7918 61.7259 83.3069C61.5499 82.822 61.3311 82.4529 61.0736 82.1998C60.3655 81.4917 59.4171 81.1355 58.2328 81.1355C56.7952 81.1355 55.04 81.6891 52.9673 82.792L51.2508 79.9511C53.7355 78.5908 56.1 77.9085 58.3486 77.9085C60.5973 77.9085 62.2923 78.5693 63.614 79.891C64.2062 80.5004 64.6697 81.2428 65.0044 82.1096C65.3391 82.9765 65.5065 83.8648 65.5065 84.7702C65.5065 85.7744 65.2962 86.7142 64.8714 87.581C64.4465 88.4479 63.7986 89.1431 62.9188 89.6666C62.0391 90.1901 60.9534 90.4519 59.6489 90.4519H56.1C55.7266 91.1042 55.4305 91.7093 55.2117 92.2714C54.9928 92.8336 54.8855 93.3786 54.8855 93.9107C54.8855 94.6788 55.1516 95.3225 55.6837 95.8332C56.2759 96.4039 57.2028 96.6914 58.4645 96.6914C59.5673 96.6914 60.8419 96.4726 62.2794 96.0392C63.717 95.6057 65.1203 95.035 66.4806 94.3226V97.9917C65.1803 98.5624 63.8243 99.0259 62.4125 99.3821C61.0006 99.7382 59.666 99.9142 58.4044 99.9142C56.1386 99.9142 54.4006 99.322 53.1991 98.1376C51.9589 96.9146 51.3367 95.507 51.3367 93.9064C51.3367 92.8422 51.6113 91.6878 52.1649 90.4476H50.9504V87.1948L50.959 87.1991ZM72.1666 77.2905V103.081H68.6177V77.2905H72.1666Z" fill="#05D4CD"/>
<path d="M82.251 84.3324L82.9162 80.4574L86.4136 81.0582L85.7656 84.8474L89.1944 85.3151C89.6063 84.886 89.9153 84.4226 90.1213 83.9291C90.3272 83.4356 90.5075 82.7189 90.6663 81.7877L94.1637 82.3885C93.9191 83.8261 93.5886 84.9418 93.1724 85.7314C95.2279 85.8816 96.7213 85.9674 97.6568 85.9889L97.0989 89.2545C94.7945 89.1601 92.091 88.937 88.9927 88.5851L88.7652 89.924L98.9999 91.6748L98.4764 94.7345L74.8057 90.6835L75.3292 87.6239L85.5596 89.3747L85.7699 88.1517C83.7573 87.8685 81.0624 87.435 77.6808 86.8557L78.2301 83.6501L82.2553 84.3367L82.251 84.3324ZM79.9509 75.8657L98.3477 79.0155L97.7984 82.2211L79.4016 79.0713L79.9509 75.8657ZM77.3204 92.4601L95.5111 95.5756L93.786 105.66L80.5217 103.39C79.2214 103.167 78.2258 102.643 77.5349 101.815C76.8483 100.987 76.6123 99.9313 76.8311 98.6482C76.8998 98.2405 77.0071 97.8586 77.1487 97.5024C77.3504 97.0175 77.6422 96.4768 78.0241 95.8803L76.7711 95.6657L77.3204 92.4601ZM80.2685 99.4163C80.2298 99.648 80.2642 99.8197 80.3758 99.9313C80.4873 100.039 80.7191 100.124 81.0667 100.184L90.8336 101.858L91.4644 98.1847L81.9035 96.5497C81.3284 97.2106 80.8564 97.9401 80.4787 98.7383C80.3715 99.0215 80.3028 99.2489 80.2728 99.4206L80.2685 99.4163Z" fill="#05D4CD"/>
</g>
<defs>
<clipPath id="clip0_498_8883">
<rect width="99" height="105.66" fill="white"/>
</clipPath>
</defs>
</svg>
