<svg width="500" height="535" viewBox="0 0 500 535" fill="none" xmlns="http://www.w3.org/2000/svg">
<path d="M274.435 257.651C215.279 378.311 223.206 470.468 223.206 470.468C276.528 467.672 298.939 443.695 314.7 424.579C345.112 387.621 378.299 255.511 378.299 255.511C421.701 278.878 458.048 285.801 487.075 234.685C522.158 172.949 467.02 95.554 407.877 102.565C348.748 109.635 333.606 137.05 274.435 257.651ZM432.745 159.358C447.932 168.351 453.215 189.242 444.57 206.052C435.891 222.842 416.553 229.17 401.347 220.214C386.141 211.258 380.877 190.329 389.522 173.52C398.167 156.71 417.539 150.402 432.745 159.358Z" fill="white"/>
<path d="M172.105 46.4386C147.099 99.9991 171.968 129.182 213.576 156.09C213.576 156.09 126.801 256.487 113.713 303.761C106.976 328.201 99.9763 361.257 126.153 411.046C126.153 411.046 203.236 369.164 267.149 251.337C331.029 133.49 344.61 105.196 318.762 47.8709C292.846 -9.4946 202.238 -18.1956 172.125 46.4007L172.105 46.4386ZM260.641 55.5908C275.828 64.5844 281.111 85.4754 272.466 102.285C263.821 119.095 244.469 125.366 229.283 116.372C214.096 107.379 208.812 86.4877 217.438 69.7155C226.063 52.9434 245.455 46.5971 260.661 55.5529L260.641 55.5908Z" fill="white"/>
</svg>
