<svg width="867" height="945" viewBox="0 0 867 945" fill="none" xmlns="http://www.w3.org/2000/svg">
<g opacity="0.25">
<path d="M396.071 478.158C465.388 753.346 599.804 882.767 599.804 882.767C677.896 797.394 680.469 726.505 679.289 673.193C676.915 570.211 552.568 316.935 552.568 316.935C650.152 286.809 715.095 242.168 691.813 119.556C663.735 -28.5675 476.476 -63.5379 395.045 37.1602C313.715 137.926 326.854 203.037 396.071 478.158ZM508.537 86.5301C543.766 77.2444 579.585 101.282 588.623 140.234C597.581 179.207 576.311 218.328 541.102 227.701C505.893 237.075 470.054 212.949 461.016 173.997C451.978 135.045 473.328 95.9038 508.537 86.5301Z" fill="white"/>
<path d="M-41.0992 309.499C-8.40885 429.749 68.4578 436.735 167.985 414.775C167.985 414.775 168.045 700.854 210.681 793.331C232.768 841.094 265.881 902.485 372.089 939.115C372.089 939.115 434.783 757.608 376.526 479.534C318.189 201.481 301.49 137.392 185.79 88.6912C69.9309 40.0322 -80.6154 164.453 -41.1192 309.411L-41.0992 309.499ZM106.866 188.922C142.095 179.636 177.914 203.674 186.952 242.626C195.99 281.578 174.62 320.631 139.391 329.917C104.162 339.203 68.3424 315.165 59.3249 276.301C50.3073 237.437 71.6374 198.207 106.846 188.834L106.866 188.922Z" fill="white"/>
</g>
</svg>
