<svg width="30" height="30" viewBox="0 0 30 30" fill="none" xmlns="http://www.w3.org/2000/svg">
<path d="M26.6736 16.402L15.013 28L3.35233 16.402C2.5832 15.6504 1.97738 14.747 1.57299 13.7487C1.16861 12.7503 0.974437 11.6787 1.0027 10.6014C1.03095 9.52398 1.28104 8.46414 1.73719 7.48859C2.19335 6.51303 2.84569 5.6429 3.65315 4.93298C4.46061 4.22305 5.4057 3.68872 6.42889 3.36363C7.45208 3.03854 8.53121 2.92972 9.59833 3.04404C10.6655 3.15837 11.6975 3.49334 12.6293 4.02788C13.5612 4.56242 14.3728 5.28495 15.013 6.14995C15.6559 5.29123 16.4684 4.57501 17.3997 4.04615C18.3309 3.51728 19.3608 3.18714 20.4249 3.07639C21.4891 2.96565 22.5645 3.07667 23.5839 3.40252C24.6034 3.72838 25.5449 4.26204 26.3495 4.97011C27.1541 5.67819 27.8045 6.54543 28.2601 7.51756C28.7156 8.48969 28.9664 9.54579 28.9969 10.6197C29.0273 11.6937 28.8366 12.7624 28.4369 13.759C28.0371 14.7555 27.4368 15.6585 26.6736 16.4114" fill="white"/>
</svg>
