<svg width="30" height="30" viewBox="0 0 30 30" fill="none" xmlns="http://www.w3.org/2000/svg">
<path d="M18.75 15C18.75 15.9946 18.3549 16.9484 17.6517 17.6517C16.9484 18.3549 15.9946 18.75 15 18.75C14.0054 18.75 13.0516 18.3549 12.3483 17.6517C11.6451 16.9484 11.25 15.9946 11.25 15C11.25 14.0054 11.6451 13.0516 12.3483 12.3483C13.0516 11.6451 14.0054 11.25 15 11.25C15.9946 11.25 16.9484 11.6451 17.6517 12.3483C18.3549 13.0516 18.75 14.0054 18.75 15Z" stroke="#646F7C" stroke-width="2" stroke-linecap="round" stroke-linejoin="round"/>
<path d="M2.5 15C4.5 9.87875 9.17 6.25 15 6.25C20.83 6.25 25.5 9.87875 27.5 15C25.5 20.1213 20.83 23.75 15 23.75C9.17 23.75 4.5 20.1213 2.5 15Z" stroke="#646F7C" stroke-width="2" stroke-linecap="round" stroke-linejoin="round"/>
</svg>
