<svg width="30" height="30" viewBox="0 0 30 30" fill="none" xmlns="http://www.w3.org/2000/svg">
<path fill-rule="evenodd" clip-rule="evenodd" d="M17.6009 15.8927C17.4662 16.2849 17.2432 16.6454 16.9443 16.9442C16.4286 17.4599 15.7293 17.7499 15 17.7499C14.2707 17.7499 13.5714 17.4599 13.0557 16.9442C12.5399 16.4285 12.25 15.7292 12.25 14.9999C12.25 14.2705 12.5399 13.5713 13.0557 13.0555C13.4006 12.7106 13.8276 12.4667 14.2908 12.343L12.829 10.7754C12.3946 10.9987 11.9934 11.2897 11.6416 11.6415C10.7508 12.5323 10.25 13.7401 10.25 14.9999C10.25 16.2596 10.7508 17.4675 11.6416 18.3583C12.5324 19.2491 13.7402 19.7499 15 19.7499C16.2598 19.7499 17.4676 19.2491 18.3584 18.3583C18.6306 18.086 18.8665 17.7842 19.0627 17.4602L17.6009 15.8927Z" fill="#646F7C"/>
<path fill-rule="evenodd" clip-rule="evenodd" d="M8.92895 6.59375L10.3743 8.14365C7.31038 9.39333 4.90677 11.8664 3.57999 15.0004C5.51943 19.5816 9.75974 22.7504 14.9999 22.7504C17.6298 22.7504 20.0077 21.9521 21.9693 20.5778L23.3452 22.0533C21.0259 23.7492 18.1747 24.7504 14.9999 24.7504C8.7179 24.7504 3.70298 20.8305 1.56827 15.3647C1.47692 15.1307 1.47692 14.8701 1.56827 14.6361C2.95451 11.0868 5.55532 8.18925 8.92895 6.59375Z" fill="#646F7C"/>
<path d="M17.4824 13.8173C17.3489 13.5372 17.1678 13.2792 16.9443 13.0557C16.7668 12.8782 16.5677 12.7275 16.353 12.6061L14.2166 10.3151C14.4738 10.272 14.7357 10.25 14.9999 10.25C16.2597 10.25 17.4675 10.7508 18.3583 11.6416C19.2491 12.5324 19.7499 13.7402 19.7499 15C19.7499 15.3764 19.7052 15.7482 19.6188 16.1082L17.4824 13.8173Z" fill="#646F7C"/>
<path d="M11.756 7.67625L10.2422 6.0529C11.7158 5.53298 13.3122 5.25 15.0001 5.25C21.2821 5.25 26.297 9.16993 28.4317 14.6357C28.5231 14.8697 28.5231 15.1303 28.4317 15.3643C27.5428 17.6404 26.1543 19.6484 24.3829 21.217L23.0182 19.7535C24.4714 18.4782 25.6337 16.8549 26.419 15C24.4795 10.419 20.2401 7.25 15.0001 7.25C13.8677 7.25 12.7819 7.39799 11.756 7.67625Z" fill="#646F7C"/>
<path d="M25.2222 24.0654C25.5988 24.4693 25.5767 25.1021 25.1728 25.4787C24.7689 25.8554 24.1361 25.8333 23.7595 25.4294L5.24029 5.56996C4.86363 5.16604 4.88573 4.53327 5.28964 4.15661C5.69356 3.77995 6.32634 3.80205 6.70299 4.20596L8.92904 6.59311L10.3744 8.14301L12.829 10.7753L14.2908 12.3428L17.6009 15.8926L19.0627 17.4601L21.9694 20.5771L23.3453 22.0526L25.2222 24.0654Z" fill="#646F7C"/>
</svg>
