<svg width="103" height="96" viewBox="0 0 103 96" fill="none" xmlns="http://www.w3.org/2000/svg">
<path d="M97.1057 71.361C97.3275 73.4711 96.6408 75.5893 95.1968 77.2496C93.7527 78.9099 91.6696 79.9764 89.4056 80.2143L21.1151 87.392C18.8511 87.6299 16.5918 87.0199 14.8341 85.6961C13.0764 84.3723 11.9643 82.4431 11.7426 80.333L5.88896 24.6398C5.66718 22.5297 6.35384 20.4114 7.79789 18.7511C9.24193 17.0908 11.3251 16.0243 13.589 15.7864L34.9298 13.5434L44.7205 24.5804L83.1339 20.543C85.3979 20.3051 87.6572 20.9151 89.4149 22.2389C91.1726 23.5627 92.2846 25.4919 92.5064 27.602L97.1057 71.361Z" fill="#E9EBEE"/>
<line x1="49.7626" y1="45.0033" x2="51.8114" y2="64.4959" stroke="#646F7C" stroke-width="2" stroke-linecap="round"/>
<line x1="41.2792" y1="55.9478" x2="60.7302" y2="53.9034" stroke="#646F7C" stroke-width="2" stroke-linecap="round"/>
</svg>
