<svg width="102" height="96" viewBox="0 0 102 96" fill="none" xmlns="http://www.w3.org/2000/svg">
<path d="M19.2615 81.8394C14.5785 81.512 11.0321 77.6735 11.3403 73.266L15.2466 17.4024C15.5548 12.9949 19.601 9.68734 24.284 10.0148L83.6391 14.1653C88.322 14.4928 91.8685 18.3312 91.5603 22.7388L88.77 62.6413L87.6539 78.6023C87.3457 83.0099 83.2996 86.3174 78.6166 85.9899L19.2615 81.8394Z" fill="#E9EBEE"/>
<path d="M43.4984 33.4435C43.2672 36.7492 40.2326 39.2298 36.7203 38.9842C33.2081 38.7386 30.5483 35.8598 30.7794 32.5541C31.0106 29.2485 34.0452 26.7679 37.5574 27.0135C41.0697 27.2591 43.7295 30.1379 43.4984 33.4435Z" fill="#646F7C"/>
<path d="M18.8123 81.8394L68.5177 41.2077L88.3208 62.6413L87.2047 78.6023C86.8965 83.0099 82.8504 86.3174 78.1674 85.9899L18.8123 81.8394Z" fill="#646F7C"/>
</svg>
